<svg data-v-1084b650="" xmlns="http://www.w3.org/2000/svg" viewBox="0 0 300 300"><!----> <linearGradient data-v-1084b650="" gradientTransform="rotate(25)" id="8d9f5980-5edf-df95-4ce8-0c641350e1f8" x1="0%" y1="0%" x2="100%" y2="0%"><stop data-v-1084b650="" offset="0%" style="stop-color: rgb(8, 199, 214); stop-opacity: 1;"></stop> <stop data-v-1084b650="" offset="100%" style="stop-color: rgb(2, 2, 62); stop-opacity: 1;"></stop></linearGradient> <rect data-v-1084b650="" fill="url(#8d9f5980-5edf-df95-4ce8-0c641350e1f8)" x="0" y="0" width="300px" height="300px" class="logo-background-square"></rect> <!----> <!----> <g data-v-1084b650="" id="7494b445-b997-71ba-4221-4dc8dd11046d" fill="#ffffff" stroke="none" transform="matrix(0.699999988079071,0,0,0.699999988079071,45,45)"><svg xmlns="http://www.w3.org/2000/svg" data-icon="code" data-container-transform="translate(0 2)" viewBox="0 0 16 16"><path d="M7.969 2L6 13.844 5.969 14h2.063l1.969-11.844.031-.156H7.969zM5 3.813l-.531.344-4 2.5L0 6.938v2.126l.469.281 4 2.5.531.344V9.814L2.094 8.001 5 6.188V3.813zm6 0v2.375l2.906 1.813L11 9.814v2.375l.531-.344 4-2.5.469-.281V6.938l-.469-.281-4-2.5L11 3.813z"></path></svg></g></svg>